<?xml version="1.0" encoding="UTF-8"?><svg id="Layer_1" xmlns="http://www.w3.org/2000/svg" viewBox="0 0 1008.85 166.5"><path d="M488.85,76v76h31V74.14l5.3-2.51c14.77-6.99,25.93-5.96,31.04,2.86,.8,1.37,1.32,13.75,1.66,39.5l.5,37.25,15.25,.28,15.25,.28-.31-40.33c-.3-39.55-.35-40.31-2.65-46.05-9.09-22.58-33.92-29.91-59.84-17.65l-6.2,2.93V0h-31V76" style="fill:#fff; fill-rule:evenodd;"/><path d="M625.03,1.28c-6.26,1.36-19,6.18-19,7.18,0,.27,2.1,6.32,4.67,13.46,3.64,10.1,5.02,12.87,6.25,12.51,.87-.25,5.51-1.62,10.31-3.03,4.81-1.42,11.01-2.88,13.78-3.25l5.04-.67-.28-13.62-.28-13.62-7-.19c-3.85-.11-9.92,.45-13.5,1.22" style="fill:#c8529e; fill-rule:evenodd;"/><path d="M672.85,76v76h31v-37.97l6.1-3.08c3.36-1.69,6.18-2.94,6.28-2.76,12.29,21.22,19.1,30.31,34.34,45.82l12.29,12.5,8.86-9.49,8.86-9.49-3.94-4.51c-16.23-18.55-26.31-32.09-33.73-45.29l-3.25-5.79,6.9-7.26c9.01-9.49,15.29-18.38,20.81-29.49,2.46-4.96,4.48-9.27,4.48-9.59s-7.19-.58-15.99-.58h-15.98l-3.12,6.25c-6.4,12.84-16.89,24.22-29.16,31.64l-3.75,2.27V0h-31V76" style="fill:#fff; fill-rule:evenodd;"/><path d="M47.85,5.23C23.65,10.57,9.2,24.87,2.15,50.45c-1.87,6.8-2.15,10.41-2.15,28.3s.27,21.5,2.18,28.5c7.08,26.01,22.79,40.71,48.18,45.1,15.65,2.7,40.66,.88,60-4.36l6.5-1.76,1-34.24v-33.99h-52v25h22v10.69c0,6.02-.37,11.17-.82,11.45-2.5,1.54-18.59,2.58-24.75,1.6-21.15-3.38-30.75-18.5-30.8-48.49-.03-19.96,3.81-31.21,13.68-40.09,10.95-9.85,32.89-11.17,56.27-3.39,3.65,1.21,6.96,1.81,7.41,1.33,1.8-1.91,9.1-20.67,8.33-21.41-1.98-1.93-17.07-7.06-26.19-8.92-11.7-2.38-33.06-2.66-42.64-.55" style="fill:#fff; fill-rule:evenodd;"/><path d="M307.35,42.76c-13.32,2.41-29.18,8.17-39.25,14.24l-5.25,3.17v91.83h31V74.88l6.25-2.82c7.8-3.52,16.52-5.37,21.21-4.49,4.69,.88,9.08,5.08,10.44,10,.7,2.51,1.1,16.75,1.1,39.19v35.25h31l-.38-40.5c-.34-36.21-.56-40.75-2.23-45.25-4.01-10.79-10.76-17.92-20.45-21.61-6.35-2.42-24.86-3.46-33.58-1.88" style="fill:#fff; fill-rule:evenodd;"/><path d="M412.43,43.24c-11.99,2.61-21.17,9.32-25.33,18.51-2.29,5.06-2.86,17.79-1.02,22.68,3.42,9.12,11.24,15.27,26.44,20.78,22.78,8.26,25.5,9.81,25.5,14.51,0,6.28-9.55,10.62-20.86,9.49-6.63-.66-23.42-5.62-25.83-7.63-1.39-1.15-1.2-1.5-6.4,12.48-1.6,4.3-2.91,8.18-2.91,8.61,0,1.33,12.03,6.32,20,8.3,4.12,1.03,12.67,2.12,19,2.43,17.21,.84,28.05-2.19,37.1-10.37,6.6-5.96,9.18-11.36,9.69-20.3,1.11-19.11-9.36-30.1-35.79-37.58-5.23-1.48-11.21-3.55-13.31-4.6-3.5-1.76-3.78-2.21-3.5-5.61,.27-3.26,.84-3.97,4.77-5.95,5.91-2.98,16.71-3.04,27.63-.16,4.35,1.15,8.55,2.16,9.34,2.25,1.63,.18,9.52-19.3,8.3-20.51-1.53-1.53-15.03-6.07-22.07-7.42-9.01-1.73-22.61-1.7-30.76,.08" style="fill:#fff; fill-rule:evenodd;"/><path d="M950.85,43.29c-4.12,.75-11.08,2.54-15.46,3.97-7.41,2.42-22.45,9.39-25.29,11.71-.97,.79-1.25,11.41-1.25,46.9v46.13h30V74.89l5.25-2.4c12.61-5.77,22.82-6.58,28.34-2.24,5.22,4.11,5.41,5.68,5.41,45.22v36.53h31v-38.2c0-40.06-.42-44.92-4.62-53.27-7.93-15.74-27.27-21.99-53.38-17.24" style="fill:#fff; fill-rule:evenodd;"/><polyline points="614.85 98 615.12 151.25 630.49 151.53 645.85 151.8 645.85 98.53 645.85 45 630.36 45 614.85 45 615.11 98" style="fill:#fff; fill-rule:evenodd;"/><path d="M219.02,110.08c15.18-4.72,22.38-14.85,22.46-31.58,.03-6.75-.39-8.88-2.72-13.62-5.02-10.24-15.94-18.3-28.96-21.37-5.77-1.36-19.52-1.85-24.27-.86-12.51,2.61-22.6,7.61-28.88,14.33-9.49,10.15-13.92,23.22-13.89,41.02,.04,22.88,6.5,37.65,20.59,47.05,8.02,5.36,16.94,7.95,29.72,8.65,15.15,.83,25.78-1.27,39.63-7.81l6.17-2.92-4.09-10.24c-2.25-5.63-4.23-10.41-4.4-10.63-.17-.22-3.36,.97-7.08,2.63-12.09,5.4-24.28,6.5-34.42,3.11-6.31-2.11-12.57-8.06-14.28-13.59l-.7-2.25h19.48c16.4,0,20.45-.3,25.65-1.92Zm-46.03-22.08l.66-2.75c1.68-7,6.67-13.46,12.88-16.68,3.45-1.79,12.07-2.06,16.18-.5,6.41,2.42,10.57,9.42,8.84,14.86-1.33,4.19-5.26,5.08-22.49,5.08h-16.07Z" style="fill:#fff; fill-rule:evenodd;"/><path d="M840.78,111.59c21.06-.32,21.93-.42,27.37-2.97,7.6-3.57,13.16-8.82,16-15.12,1.94-4.32,2.36-6.92,2.37-14.74,0-8.11-.34-10.16-2.38-14-5.35-10.06-12.55-16.19-23.6-20.06-7.94-2.79-24.42-3.49-33.5-1.43-25.41,5.76-38.97,24.9-38.97,55,0,17.88,3.97,29.97,13.13,39.99,14.74,16.13,46.26,20.3,72.1,9.55,11.92-4.96,11.49-3.97,6.68-15.55-2.28-5.49-4.26-10.1-4.4-10.25-.14-.15-3.36,1.05-7.15,2.66-19.57,8.3-38.1,5.79-46.15-6.25-1.79-2.67-3.25-5.22-3.25-5.66s9.79-.95,21.75-1.14Zm-22.65-23.71l.82-2.84c2.33-8.13,6.96-14.03,13.09-16.69,8.02-3.48,20.33-.7,23.43,5.28,2.24,4.33,2.01,9.42-.54,11.72-1.86,1.69-4.06,1.94-19.45,2.22l-17.35,.31Z" style="fill:#fff; fill-rule:evenodd;"/></svg>