<svg xmlns="http://www.w3.org/2000/svg" version="1.1" xmlns:xlink="http://www.w3.org/1999/xlink" xmlns:svgjs="http://svgjs.com/svgjs" width="980.49" height="968.93"><svg id="SvgjsSvg1000" data-name="Layer 1" xmlns="http://www.w3.org/2000/svg" viewBox="0 0 980.49 968.93">
  <defs>
    <style>
      .cls-1 {
        fill: #c9529f;
      }
    </style><style class="darkreader darkreader--sync" media="screen"></style>
  </defs>
  <path class="cls-1" d="M283.99,0c7.68,5.5,15.52,11.09,23.34,16.7,34.11,24.5,68.25,48.96,102.26,73.6,3.38,2.45,6.25,2.85,10.19,1.76,36.67-10.2,73.75-18.62,111.16-25.63,24.63-4.61,49.37-8.54,74.21-11.81,18.59-2.45,37.23-4.44,55.92-6.08,33.32-2.93,66.69-4.74,100.13-5.76,33.28-1.02,66.54-.83,99.81-.31,21.55,.34,43.09,1.22,64.63,2.02,16.52,.61,33.04,1.46,49.56,2.23,5.25,.24,5.31,.28,5.3,5.4-.04,37.73-.08,75.46-.16,113.18-.06,31.04-.04,62.07-.29,93.11-.8,98.68-.68,197.36-.88,296.03-.06,27.51,.19,55.02-.29,82.51-.71,40.14-.31,80.27-.6,120.4-.03,4.65-.03,4.76-4.67,5.56-16.83,2.88-33.7,5.5-50.5,8.53-35.61,6.41-71.09,13.52-106.44,21.26-48.94,10.72-97.65,22.42-146.1,35.21-51.33,13.55-102.33,28.22-152.98,44.12-78.68,24.71-156.25,52.51-232.6,83.7-9.45,3.86-18.82,7.93-28.26,11.84-5.19,2.15-5.24,2.1-7.08-3.01-8.75-24.27-17.49-48.55-26.24-72.83-17.37-48.2-34.75-96.41-52.14-144.61-.31-.86-.83-1.67-.48-3.14,1.18,.08,2.1,.85,3.06,1.53,12.27,8.72,24.6,17.36,36.81,26.16,21.76,15.68,46.07,23.53,72.83,24.31,30.6,.89,59.27-6.73,86.6-19.78,39.71-18.97,72.15-46.84,98.3-82.06,18.05-24.3,28.83-51.77,34.54-81.35,4.14-21.45,5.32-43.12,4.23-64.88-.58-11.67-1.92-23.29-4-34.82-.58-3.2-1.92-4.73-4.81-5.97-40.61-17.35-76.92-41.22-108.09-72.55-27.01-27.16-47.33-58.55-58.43-95.53-7.34-24.48-9.92-49.51-8.17-74.9,2.45-35.6,12.49-69.28,27.1-101.69,7.57-16.78,16.14-33.04,25.76-48.75,.58-.95,1.01-2.01,1.68-2.89,1.74-2.3,1.2-3.88-1.11-5.49-6.71-4.68-13.3-9.52-19.93-14.29-21.28-15.29-42.56-30.58-63.84-45.86-.9-.64-1.88-1.17-2.96-1.84-3.29,3.14-5.67,6.93-8.38,10.43-28.08,36.31-55.95,72.81-80.47,111.66-31.77,50.35-59.78,102.71-82.42,157.86-19,46.28-34.46,93.7-46.72,142.19-.18,.7-.4,1.39-.62,2.17-2.35-.46-2.11-2.58-2.6-3.93-14.87-41.02-29.64-82.06-44.43-123.11-7.68-21.31-15.36-42.62-23.04-63.93-.25-.7-.53-1.39-.77-2.09-1.48-4.35-1.5-4.38,2.71-6.78,4.04-2.3,8.11-4.53,12.18-6.77,41.5-22.86,83.58-44.59,126.42-64.82,3.37-1.59,5.71-3.73,7.59-6.92,26.2-44.61,55.74-86.95,87.02-128.11,14.62-19.23,29.23-38.47,43.84-57.7,.89-1.17,1.55-2.56,3.32-3.48Zm246.22,831.45c1.97-1.71,2.88-3.75,4.04-5.58,31.55-49.51,63.15-98.98,95.67-147.86,14.61-21.96,29.01-44.09,45.33-64.85,32.96-41.94,67.83-82.29,102.56-122.76,5.32-6.2,10.65-12.41,16.09-18.52,1.76-1.98,1.89-3.46-.45-4.91-.63-.39-1.22-.85-1.82-1.28-40.56-28.89-81.04-57.88-121.69-86.64-40.5-28.65-81.15-57.08-121.77-85.57-11.1-7.79-22.34-15.38-33.46-23.15-3.91-2.73-3.84-2.47-6.56,1.05-1.82,2.35-3.65,4.7-5.32,7.15-22.92,33.6-36.77,71.06-47.03,110.08-.83,3.17,.52,4.31,2.61,5.79,25.2,17.78,50.37,35.61,75.55,53.42,18.66,13.2,37.32,26.39,55.97,39.59,3.5,2.48,3.45,2.49,1.64,6.59-2.7,6.11-5.54,12.18-7.98,18.39-29.76,75.52-50.73,153.16-56.39,234.49-1.6,23.03-1.49,46.04,.57,69.01,.45,5.03,.29,10.28,2.44,15.55Z"></path>
</svg><style>@media (prefers-color-scheme: light) { :root { filter: none; } }
</style></svg>